<svg xmlns="http://www.w3.org/2000/svg" width="29" height="28" viewBox="0 0 29 28"><g transform="translate(-278.25 -11.75)"><g transform="translate(278.25 11.75)" fill="#fffbf0" stroke="#fb0" stroke-width="1"><rect width="29" height="28" rx="5" stroke="none"/><rect x="0.5" y="0.5" width="28" height="27" rx="4.5" fill="none"/></g><path d="M18.18,9.941H11.887V3.648a1.4,1.4,0,0,0-1.4-1.4H9.09a1.4,1.4,0,0,0-1.4,1.4V9.941H1.4A1.4,1.4,0,0,0,0,11.34v1.4a1.4,1.4,0,0,0,1.4,1.4H7.691V20.43a1.4,1.4,0,0,0,1.4,1.4h1.4a1.4,1.4,0,0,0,1.4-1.4V14.137H18.18a1.4,1.4,0,0,0,1.4-1.4v-1.4A1.4,1.4,0,0,0,18.18,9.941Z" transform="translate(282.961 13.711)" fill="#fffefa" stroke="#f90" stroke-width="1"/></g></svg>