<svg xmlns="http://www.w3.org/2000/svg" xmlns:xlink="http://www.w3.org/1999/xlink" width="141" height="141" viewBox="0 0 141 141"><defs><filter id="a" x="0" y="0" width="141" height="141" filterUnits="userSpaceOnUse"><feOffset input="SourceAlpha"/><feGaussianBlur stdDeviation="1" result="b"/><feFlood flood-color="#fff"/><feComposite operator="in" in2="b"/><feComposite in="SourceGraphic"/></filter></defs><g transform="translate(3 3)"><g transform="matrix(1, 0, 0, 1, -3, -3)" filter="url(#a)"><g transform="translate(3 3)" fill="#FFF6DC" stroke="#ffbd5b" stroke-width="2"><circle cx="67.5" cy="67.5" r="67.5" stroke="none"/><circle cx="67.5" cy="67.5" r="66.5" fill="none"/></g></g><g transform="translate(24 31.635)"><g transform="translate(30.791 0.504)"><g transform="translate(-4.79 -1.639)"><path d="M4.5,17.11c.066-.5,2.458-1.984,17.48-14.11,0,0,17.455,13.613,17.48,14.11s0,22.173,0,22.173a3.96,3.96,0,0,1-3.884,4.031H29.108V24.73H14.846V43.314H8.381A3.96,3.96,0,0,1,4.5,39.283S4.431,17.607,4.5,17.11Z" transform="translate(-4.468 -3)" fill="#fff6dc" stroke="#ffbd5b" stroke-linecap="round" stroke-linejoin="round" stroke-width="2"/><g transform="translate(12.509 24)" fill="#e3f0fa" stroke="#cce0f0" stroke-width="1"><rect width="10" height="17" rx="2" stroke="none"/><rect x="0.5" y="0.5" width="9" height="16" rx="1.5" fill="none"/></g></g></g><text transform="translate(0 66.865)" fill="#3c5871" font-size="25" font-family="SegoeUI, Segoe UI" letter-spacing="0.06em"><tspan x="0" y="0">Apart</tspan><tspan y="0" fill="#ffbd5b">O</tspan></text></g></g></svg>