<svg xmlns="http://www.w3.org/2000/svg" width="54" height="54" viewBox="0 0 54 54"><g transform="translate(-47 -17.75)"><g transform="translate(47 17.75)" fill="#fff6dc" stroke="#fb0" stroke-width="1"><circle cx="27" cy="27" r="27" stroke="none"/><circle cx="27" cy="27" r="26.5" fill="none"/></g><path d="M13.358,25.969a.678.678,0,0,0-.623-.4.668.668,0,0,0-.614.379l-.47.939a.98.98,0,0,1-1.805-.128l-1.03-3.09-.65,1.952a2.643,2.643,0,0,1-2.51,1.808H4.9a.98.98,0,0,1,0-1.959h.759A.686.686,0,0,0,6.308,25l1.114-3.346a1.47,1.47,0,0,1,2.789,0l.85,2.55a2.748,2.748,0,0,1,4.041.867.7.7,0,0,0,.573.383V20.428l7.837-7.782V9.8H15.185a1.474,1.474,0,0,1-1.469-1.469V0H1.469A1.466,1.466,0,0,0,0,1.469V29.88a1.466,1.466,0,0,0,1.469,1.469H22.042a1.466,1.466,0,0,0,1.469-1.469V27.43l-7.837-.007A2.629,2.629,0,0,1,13.358,25.969ZM23.512,7.464a1.465,1.465,0,0,0-.429-1.035l-5.994-6A1.468,1.468,0,0,0,16.048,0h-.373V7.837h7.837Z" transform="translate(61.004 28.09)" fill="#fffefa" stroke="#f90" stroke-width="1"/><path d="M17.634,21.244v4.227h4.224l9.9-9.967L27.6,11.348l-9.967,9.9Zm17.177-11L32.86,8.294a1.559,1.559,0,0,0-2.2,0L28.986,9.962l4.156,4.156,1.668-1.668A1.558,1.558,0,0,0,34.811,10.245Z" transform="translate(61.004 28.09)" fill="#fffefa" stroke="#f90" stroke-width="1"/></g></svg>