<svg xmlns="http://www.w3.org/2000/svg" width="54" height="54" viewBox="0 0 54 54"><g transform="translate(14.637 10.553)"><g transform="translate(0 -2)"><path d="M4.5,13.983,18.621,3,32.743,13.983V31.243A3.138,3.138,0,0,1,29.6,34.381H7.638A3.138,3.138,0,0,1,4.5,31.243Z" transform="translate(-6.258 -2.242)" fill="#fffefa" stroke="#FFBB00" stroke-linecap="round" stroke-linejoin="round" stroke-width="1"/><path d="M14.866.538A7.087,7.087,0,0,0,12.08,0c-2.948,0-5.9,1.492-8.843,1.492A7.262,7.262,0,0,1,1.02,1.164a.818.818,0,0,0-.248-.039A.762.762,0,0,0,0,1.886V9.479a.761.761,0,0,0,.451.705,7.083,7.083,0,0,0,2.786.538c2.948,0,5.9-1.492,8.844-1.492a7.262,7.262,0,0,1,2.217.328.818.818,0,0,0,.248.039.762.762,0,0,0,.772-.761V1.243A.762.762,0,0,0,14.866.538ZM1.149,2.4a8.329,8.329,0,0,0,1.5.214,1.534,1.534,0,0,1-1.5,1.234Zm0,6.821V8.076A1.531,1.531,0,0,1,2.674,9.546,5.782,5.782,0,0,1,1.149,9.22Zm6.51-1.561a2.133,2.133,0,0,1-1.915-2.3,2.133,2.133,0,0,1,1.915-2.3,2.133,2.133,0,0,1,1.915,2.3A2.133,2.133,0,0,1,7.659,7.659Zm6.51.665a8.229,8.229,0,0,0-1.3-.2,1.528,1.528,0,0,1,1.3-1.179Zm0-5.651A1.529,1.529,0,0,1,12.833,1.2a5.753,5.753,0,0,1,1.336.3Z" transform="matrix(0.848, -0.53, 0.53, 0.848, 3.027, 17.961)" fill="#fffefa" stroke="#FFBB00" stroke-width="1"/></g></g></svg>