<svg xmlns="http://www.w3.org/2000/svg" width="54" height="54" viewBox="0 0 54 54"><g transform="translate(-48 -15.75)"><g transform="translate(48 15.75)" fill="#fff6dc" stroke="#fb0" stroke-width="1"><circle cx="27" cy="27" r="27" stroke="none"/><circle cx="27" cy="27" r="26.5" fill="none"/></g><g transform="translate(59.68 26.564)"><path d="M10.825,6.572V0H1.16A1.157,1.157,0,0,0,0,1.16V23.583a1.157,1.157,0,0,0,1.16,1.16H17.4a1.157,1.157,0,0,0,1.16-1.16V7.732H11.985A1.163,1.163,0,0,1,10.825,6.572Zm3.093,11.405a.582.582,0,0,1-.58.58H5.219a.582.582,0,0,1-.58-.58v-.387a.582.582,0,0,1,.58-.58h8.119a.582.582,0,0,1,.58.58Zm0-3.093a.582.582,0,0,1-.58.58H5.219a.582.582,0,0,1-.58-.58V14.5a.582.582,0,0,1,.58-.58h8.119a.582.582,0,0,1,.58.58Zm0-3.48v.387a.582.582,0,0,1-.58.58H5.219a.582.582,0,0,1-.58-.58v-.387a.582.582,0,0,1,.58-.58h8.119A.582.582,0,0,1,13.918,11.405Zm4.639-5.514v.295H12.372V0h.295a1.159,1.159,0,0,1,.822.338l4.731,4.736A1.156,1.156,0,0,1,18.557,5.891Z" transform="translate(1.012 6.061)" fill="#fffbf0" stroke="#f90" stroke-width="1"/><g transform="translate(10.859)"><path d="M10.825,6.572V0H1.16A1.157,1.157,0,0,0,0,1.16V23.583a1.157,1.157,0,0,0,1.16,1.16H17.4a1.157,1.157,0,0,0,1.16-1.16V7.732H11.985A1.163,1.163,0,0,1,10.825,6.572Zm3.093,11.405a.582.582,0,0,1-.58.58H5.219a.582.582,0,0,1-.58-.58v-.387a.582.582,0,0,1,.58-.58h8.119a.582.582,0,0,1,.58.58Zm0-3.093a.582.582,0,0,1-.58.58H5.219a.582.582,0,0,1-.58-.58V14.5a.582.582,0,0,1,.58-.58h8.119a.582.582,0,0,1,.58.58Zm0-3.48v.387a.582.582,0,0,1-.58.58H5.219a.582.582,0,0,1-.58-.58v-.387a.582.582,0,0,1,.58-.58h8.119A.582.582,0,0,1,13.918,11.405Zm4.639-5.514v.295H12.372V0h.295a1.159,1.159,0,0,1,.822.338l4.731,4.736A1.156,1.156,0,0,1,18.557,5.891Z" transform="translate(0.212 1.564)" fill="#fffbf0" stroke="#f90" stroke-width="1"/></g></g></g></svg>