<svg xmlns="http://www.w3.org/2000/svg" width="54" height="54" viewBox="0 0 54 54"><g transform="translate(14.637 10.553)"><g transform="translate(-14.637 -10.553)" fill="#fff6dc" stroke="#fb0" stroke-width="1"><circle cx="27" cy="27" r="27" stroke="none"/><circle cx="27" cy="27" r="26.5" fill="none"/></g><path d="M26.42,21.229l-6.174-6.282a3.865,3.865,0,0,0-4.5-.746l-5.62-5.719V5.15L3.374,0,0,3.434,5.061,10.3H8.335l5.62,5.719a4.045,4.045,0,0,0,.733,4.582l6.174,6.282a1.936,1.936,0,0,0,2.779,0l2.779-2.827a2.029,2.029,0,0,0,0-2.827Zm-8.932-9.158a5.5,5.5,0,0,1,3.949,1.663l1.023,1.041a7.457,7.457,0,0,0,2.309-1.583,7.808,7.808,0,0,0,2-7.334.627.627,0,0,0-1.06-.3L21.785,9.555l-3.58-.606-.6-3.643,3.923-3.992a.652.652,0,0,0-.3-1.084,7.507,7.507,0,0,0-7.2,2.033,7.675,7.675,0,0,0-2.172,5.558l4.329,4.4a5.649,5.649,0,0,1,1.3-.156Zm-5.478,4.4L9.02,13.429.985,21.61a3.475,3.475,0,0,0,0,4.855,3.332,3.332,0,0,0,4.772,0l6.517-6.631a5.856,5.856,0,0,1-.264-3.364ZM3.374,25.323a1.288,1.288,0,1,1,1.265-1.288A1.28,1.28,0,0,1,3.374,25.323Z" transform="translate(-1.131 2.712)" fill="#fffefa" stroke="#f90" stroke-width="1"/></g></svg>