<svg xmlns="http://www.w3.org/2000/svg" width="54" height="54" viewBox="0 0 54 54"><g transform="translate(14.637 10.553)"><g transform="translate(-14.637 -10.553)" fill="#fff6dc" stroke="#fb0" stroke-width="1"><circle cx="27" cy="27" r="27" stroke="none"/><circle cx="27" cy="27" r="26.5" fill="none"/></g><path d="M27,9.281A9.286,9.286,0,0,1,15.988,18.4l-1.266,1.425a1.266,1.266,0,0,1-.946.425H11.813v2.109a1.266,1.266,0,0,1-1.266,1.266H8.438v2.109A1.266,1.266,0,0,1,7.172,27H1.266A1.266,1.266,0,0,1,0,25.734V21.618a1.266,1.266,0,0,1,.371-.895L8.9,12.191A9.282,9.282,0,1,1,27,9.281ZM17.719,6.75A2.531,2.531,0,1,0,20.25,4.219,2.531,2.531,0,0,0,17.719,6.75Z" transform="translate(-1.137 2.947)" fill="#fffefa" stroke="#f90" stroke-width="1"/></g></svg>