<svg xmlns="http://www.w3.org/2000/svg" width="46" height="30" viewBox="0 0 46 30"><g fill="#fff6dc" stroke="#f90" stroke-width="1"><rect width="46" height="30" rx="5" stroke="none"/><rect x="0.5" y="0.5" width="45" height="29" rx="4.5" fill="none"/></g><path d="M0,9.951V9.092A1.374,1.374,0,0,1,1.446,7.8H23.14V5.226a1.476,1.476,0,0,1,2.469-.911l4.821,4.3a1.192,1.192,0,0,1,0,1.822l-4.821,4.3a1.476,1.476,0,0,1-2.469-.911V11.24H1.446A1.374,1.374,0,0,1,0,9.951Zm29.407,8.162H7.713V15.535a1.476,1.476,0,0,0-2.469-.911L.424,18.92a1.192,1.192,0,0,0,0,1.822l4.821,4.3a1.476,1.476,0,0,0,2.469-.911V21.549H29.407a1.374,1.374,0,0,0,1.446-1.289V19.4A1.374,1.374,0,0,0,29.407,18.113Z" transform="translate(7.573 0.323)" fill="#fffefa" stroke="#f90" stroke-width="1"/></svg>